# xmcd
#
# Track frame offsets:
#	150
#	15785
#	22902
#	38065
#	57357
#	82312
#	103670
#	121552
#	132947
#
# Disc length: 2053 seconds
#
# Revision: 1
# Processed by: cddbd v1.5.1PL0 Copyright (c) Steve Scherf et al.
# Submitted via: CDex 1.50Beta5
#
DISCID=63080309
DTITLE=中山みさ - アーメン・ハレルヤ
DYEAR=1900
DGENRE=
TTITLE0=マリア様の心
TTITLE1=イエス様は
TTITLE2=神様の愛は
TTITLE3=神様といつも一緒
TTITLE4=アーメン・ハレルヤ
TTITLE5=ありがとう神様
TTITLE6=アヴェマリア
TTITLE7=若い心を広げよう
TTITLE8=シャローム
EXTD=
EXTT0=
EXTT1=
EXTT2=
EXTT3=
EXTT4=
EXTT5=
EXTT6=
EXTT7=
EXTT8=
PLAYORDER=
